<?xml version="1.0" encoding="utf-8"?>
<!-- Generator: Adobe Illustrator 25.4.1, SVG Export Plug-In . SVG Version: 6.00 Build 0)  -->
<svg version="1.1" id="Layer_1" xmlns="http://www.w3.org/2000/svg" xmlns:xlink="http://www.w3.org/1999/xlink" x="0px" y="0px"
	 viewBox="0 0 2954.3 2738.2" style="enable-background:new 0 0 2954.3 2738.2;" xml:space="preserve">
<style type="text/css">
	.st0{fill:#FFFFFF;}
</style>
<path class="st0" d="M1421.5,1979.5c-49.3-54.9-89-134.2-109-177.1c-97.5,45.4-185.2-2.7-189.2-4.9l0.7,0.4
	c-97.3-51-129.1-132.9-139.3-192.6c-23.3-136.8,27.7-205.5,27.7-205.5s46.8,227.2,208.8,118.6l34.2,25.8
	c-3.9,2-95.2,111.2-221.7,11.1c2.3,56,25.1,145.1,115.4,192.4l0.4,0.2l0.4,0.2c3.1,1.7,81.1,43.5,160.9-8.5l27.3-17.8l12.7,30.5
	c0.6,1.4,48.2,114.7,105.3,183.2c7.9,9.4,17.9,15.1,17.9,15.1c3.7-1.9,15.8-14.8,15.8-14.8c57.2-68.5,105-182.3,105.6-183.6
	l12.7-30.5l27.3,17.8c79.8,51.9,157.7,10.2,160.9,8.5l0.3-0.2l0.4-0.2c90.3-47.3,113-136.5,115.4-192.4
	c-126.6,100.2-217.8-9.1-221.7-11.1l34.2-25.8c162,108.6,208.8-118.6,208.8-118.6s51,68.7,27.7,205.5
	c-10.1,59.7-42,141.6-139.3,192.6l0.7-0.4c-4,2.2-91.9,50.3-189.2,4.9c-19.6,42.2-60.3,122.7-108.4,177.6c0,0-24.9,28-51.1,44.6
	C1473.8,2024.6,1448.7,2009.6,1421.5,1979.5L1421.5,1979.5z"/>
<path class="st0" d="M1604.7,1029.3l88-86.5c77-73.3,196.2-73.3,196.2-73.3h346.5c-7.4,26.3-33,41.3-33,41.3c-143-5.7-154,15-154,15
	h144.8c-12.8,20.7-36.7,39.5-36.7,39.5c-135.6,0-128.3,13.2-128.3,13.2h121c-20.2,24.4-42.2,41.3-42.2,41.3
	c-121-3.8-119.2,13.2-119.2,13.2h104.5c-3.6,13.1-47.7,41.3-47.7,41.3c-124.7-3.7-122.8,16.9-122.8,16.9h102.7
	c-23.8,26.3-62.4,37.6-62.4,37.6c-126.5-3.8-110,13.2-110,13.2h97.2c-22,22.6-62.3,41.3-62.3,41.3c-91.7,0-104.5,15-104.5,15h77
	c-31.2,18.8-69.7,39.5-69.7,39.5c-75.2-3.8-78.8,13.2-78.8,13.2h56.9l-86.2,48.9c-20.2,9.4-5.5,24.4-5.5,24.4l100.9,105.2
	c-12.9,35.7-93.5,90.2-93.5,90.2l-58.7-135.3c0,0,51.4-97.7,38.5-268.8c0,0-123.9-39.7-185.4-41.3c-69.7-1.9-185.4,41.3-185.4,41.3
	c-12.9,171,38.5,268.8,38.5,268.8l-58.7,135.3c0,0-80.7-54.5-93.5-90.2l100.9-105.2c0,0,14.7-15-5.5-24.4l-86.3-49h56.9
	c0,0-3.7-16.9-78.8-13.2c0,0-38.5-20.7-69.7-39.5h77c0,0-12.9-15-104.5-15c0,0-40.3-18.8-62.3-41.3h97.1c0,0,16.5-16.9-110-13.2
	c0,0-38.5-11.3-62.4-37.6H1034c0,0,1.8-20.7-122.8-16.9c0,0-44-28.2-47.7-41.3H968c0,0,1.9-16.9-119.2-13.2c0,0-22-16.9-42.2-41.3
	h121c0,0,7.3-13.2-128.3-13.2c0,0-23.8-18.8-36.7-39.5h144.8c0,0-11-20.7-154-15c0,0-25.7-15-33-41.3h346.5c0,0,119.2,0,196.2,73.3
	l88,86.5c0,0,18.9,21.3,40.3-12.5l25.3-45.8c0,0,11.4-16.8-9.4-18.1c0,0-24.4-5-28.1-26.3c0,0,24.4,10.7,45.8,6.3
	c0,0,36.1-8.8,28.7,27l-22,65.1c0,0-8.6,13.8,9.2,12.5h86.8c0,0,18.3,4.4,7.4-13.2c0,0-14.1-21.3-13.4-99c0,0,7.4-41.3-25.7-42.6
	c0,0-22-1.9-59.9,5c0,0-1.8,8.1,25.7,10.7c0,0-6.1,15-29.3,15.7c0,0-29.3-0.6-49.5,0.6c0,0-17.7-2.5-12.8,25c0,0-33.6-28.8-6.7-53.8
	c0,0,4.9-10.7,50.1-3.1c0,0,9.8,0.6,13.4-7.5c0,0,9.8-29.5,51.3-29.5c0,0,26.3-2.5,56.9,4.4c0,0,11.6,5.6,23.8-1.3
	c0,0,1.8,9.4-13.4,26.3c0,0-5.5,10.1-2.5,16.9c0,0,9.8,40.7,9.8,66.4c0,0,3.7,40.1,17.7,63.3
	C1570.7,1021.8,1583.3,1046.8,1604.7,1029.3L1604.7,1029.3z"/>
<path class="st0" d="M1339.7,1405.7l-59.9,139.7l17.8,15c0,0,7.3,7.5-1.9,16.3c0,0-30.6,33.2-58.7,31.3h-30c0,0-26.9,0-20.2,31.3
	c0,0,3,14.4,19.5,28.2c0,0-14.1-33.2,9.2-33.2H1339c0,0,19.6-1.9,9.8,26.3c0,0,21.4-7.5,22.6-27c0,0,6.1-23.2-17.7-24.4h-32.4
	c0,0-18.3,1.9-6.1-13.2l13.4-19.4l34.8,10.7l46.5-96.5C1410,1490.9,1363.6,1451.5,1339.7,1405.7L1339.7,1405.7z M1614.3,1405.7
	l59.9,139.7l-17.8,15c0,0-7.3,7.5,1.9,16.3c0,0,30.6,33.2,58.7,31.3h30c0,0,26.9,0,20.2,31.3c0,0-3.1,14.4-19.6,28.2
	c0,0,14.1-33.2-9.2-33.2h-123.5c0,0-19.5-1.9-9.8,26.3c0,0-21.4-7.5-22.6-27c0,0-6.1-23.2,17.8-24.4h32.4c0,0,18.3,1.9,6.1-13.2
	l-13.4-19.4l-34.8,10.7l-46.5-96.5C1544,1490.9,1590.5,1451.5,1614.3,1405.7L1614.3,1405.7z M1424.6,1502.2c0,0,22.6,21.9,47,31.3
	c0,0,32.3-11.2,54.4-31.3l30,69.5c0,0-82.5,30.7-157.1,0L1424.6,1502.2z"/>
<path class="st0" d="M1314.9,1244.1h25.7v110.3C1340.6,1354.4,1318.6,1326.8,1314.9,1244.1z M1363.5,1244.1h24.7v193.6
	c0,0-19.2-21.3-24.7-33.8V1244.1z M1413,1244.1h24.7V1489c0,0-19.3-18.2-24.7-30.7V1244.1z M1636.4,1244.1h-25.7v110.3
	C1610.7,1354.4,1632.8,1326.8,1636.4,1244.1z M1587.8,1244.1H1563v193.6c0,0,19.3-21.3,24.7-33.8v-159.8L1587.8,1244.1
	L1587.8,1244.1z M1538.3,1244.1h-24.7V1489c0,0,19.2-18.2,24.7-30.7V1244.1z M1461.6,1496.5V1244h24.7l0.9,251.5
	c0,0-3.6,8.4-11.6,14.1C1475.6,1509.7,1468.9,1510.3,1461.6,1496.5z"/>
<path class="st0" d="M1640.1,1230v-100.5c0,0-122.3-36.4-165-38.9c0,0-99,16.9-160.1,37.6V1230H1640.1L1640.1,1230z"/>
<path class="st0" d="M1481.5,1108.6l4.3,12.7l13.1,0.3l-10.5,8.1l3.8,12.8l-10.7-7.7l-10.8,7.7l3.8-12.8l-10.5-8.1l13.1-0.3
	L1481.5,1108.6z M1439.3,1116.2l4.3,12.7l13.1,0.3l-10.5,8.1l3.8,12.9l-10.8-7.7l-10.8,7.7l3.8-12.9l-10.5-8.1l13.1-0.3
	L1439.3,1116.2z M1395.9,1125.6l4.3,12.7l13.1,0.3l-10.5,8.1l3.8,12.9l-10.8-7.7l-10.8,7.7l3.8-12.9l-10.5-8.1l13.1-0.3
	L1395.9,1125.6z M1350.7,1136.2l4.3,12.7l13.1,0.3l-10.5,8.1l3.8,12.8l-10.7-7.7l-10.8,7.7l3.8-12.8l-10.5-8.1l13.2-0.3
	L1350.7,1136.2z M1523.6,1116.2l-4.3,12.7l-13.1,0.3l10.5,8.1l-3.8,12.9l10.8-7.7l10.8,7.7l-3.8-12.9l10.5-8.1l-13.1-0.3
	L1523.6,1116.2z M1567,1125.6l-4.3,12.7l-13.1,0.3l10.5,8.1l-3.8,12.9l10.8-7.7l10.7,7.7l-3.8-12.9l10.5-8.1l-13.1-0.3L1567,1125.6z
	 M1612.2,1136.2l-4.3,12.7l-13.1,0.3l10.5,8.1l-3.8,12.8l10.7-7.7l10.8,7.7l-3.8-12.8l10.5-8.1l-13.2-0.3L1612.2,1136.2z
	 M1612.2,1183.2l-4.3,12.7l-13.1,0.3l10.5,8.1l-3.8,12.9l10.7-7.7l10.8,7.7l-3.8-12.9l10.5-8.1l-13.2-0.3L1612.2,1183.2z
	 M1561.6,1183.2l-4.3,12.7l-13.1,0.3l10.5,8.1l-3.8,12.9l10.8-7.7l10.8,7.7l-3.8-12.9l10.4-8.1l-13.1-0.3L1561.6,1183.2z
	 M1510.8,1183.2l-4.4,12.7l-13.1,0.3l10.5,8.1l-3.8,12.9l10.8-7.7l10.8,7.7l-3.8-12.9l10.5-8.1l-13.1-0.3L1510.8,1183.2z
	 M1456.4,1183.2l-4.3,12.7l-13.1,0.3l10.5,8.1l-3.8,12.9l10.8-7.7l10.8,7.7l-3.8-12.9l10.5-8.1l-13.1-0.3L1456.4,1183.2z
	 M1402,1183.2l-4.3,12.7l-13.1,0.3l10.5,8.1l-3.8,12.9l10.8-7.7l10.8,7.7l-3.8-12.9l10.5-8.1l-13.1-0.3L1402,1183.2z M1351.3,1183.2
	l-4.3,12.7l-13.1,0.3l10.5,8.1l-3.8,12.9l10.8-7.7l10.8,7.7l-3.8-12.9l10.4-8.1l-13.1-0.3L1351.3,1183.2z"/>
<path class="st0" d="M851.3,1056.3l21.5,63.5l65.6,1.4l-52.3,40.6l19,64.5l-53.9-38.5l-53.9,38.4l19-64.4l-52.3-40.6l65.7-1.4
	L851.3,1056.3z M1475.6,342.7c0,0,11,212.3,18.3,285.6c0,0,7.4,116.5,9.2,187.9h-60.5c0,0,11-137.2,14.7-187.9
	C1457.3,628.3,1468.3,468.6,1475.6,342.7L1475.6,342.7z"/>
<path class="st0" d="M754,949.4c-55.2,219.5,67.2,331,131.5,372.7c14.9-102.5,106.8-156.1,111.9-158.8l45.4,33.2
	c-147.8,79-99.6,214.7-99.6,214.7s-117.4-49.2-177.2-121c-144.9-174-59.9-374.6-53.2-389.5L754,949.4L754,949.4z M2124.6,1119.8
	l-21.5-63.5l-21.5,63.5l-65.7,1.4l52.3,40.6l-19,64.5l53.9-38.5l53.9,38.4l-19-64.4l52.3-40.6L2124.6,1119.8z"/>
<path class="st0" d="M2241.6,900.7l-41.3,48.8c55.2,219.5-67.2,331-131.5,372.7c-15-102.5-106.8-156.1-111.8-158.8l-45.4,33.2
	c147.8,79,99.6,214.7,99.6,214.7s117.4-49.2,177.2-121C2333.3,1116.1,2248.3,915.5,2241.6,900.7L2241.6,900.7z M2034.6,748.9
	l0.9,0.2c-7.1-1.3-158.8-28.8-279.2,35.6c-10.1-56.1-34.5-156.4-89.2-244.4c-0.6-1-56.7-99.4-80-137.8l-0.2-0.4l-0.2-0.3
	c-0.6-1.1-93.3-148.9-112.3-226.5c-18.9,77.7-106.3,225.5-106.8,226.5l-0.2,0.3l-0.2,0.4c-23.3,37.4-79.4,136.8-80,137.8
	c-54.6,88-79,188.3-89.2,244.4c-120.4-64.4-272.2-37-279.2-35.6l0.9-0.2c-89.6,13.7-156.1,59-178.7,104l75.7,0.1
	c25.8-21.6,61.7-40.7,111.2-48.3l0.5-0.1l0.4-0.1c1.7-0.3,169.5-30.4,273.8,49.4l39,29.8l4.7-49.7c0.1-1.4,15.1-147.3,87.5-263.9
	c2.6-4.4,59.2-98.6,81.4-140.3c3.9-6.8,36.1-66.6,58.2-140c22.1,73.4,61.7,133.2,65.6,140c22.2,41.7,78.8,135.9,81.4,140.3
	c72.4,116.6,87.4,262.5,87.5,263.9l4.8,49.7l39-29.8c104.3-79.8,272.1-49.7,273.8-49.4l0.5,0.1l0.4,0.1
	c49.5,7.6,85.4,26.6,111.1,48.3l79-0.1C2194.1,807.8,2124.3,762.6,2034.6,748.9L2034.6,748.9z"/>
<g>
	<g>
		<path class="st0" d="M321.4,1840.3c76.6,65.4,157.3,123.2,241.2,173.6c-15.1,25.5-30.1,50.9-45.2,76.4c-4.2-2.5-8.4-5.1-12.6-7.6
			c12.4-29.7,12-55-0.5-76.3c-7.1-11.9-20.8-24.8-40.8-39.3c-43.7,63.7-87.3,127.5-131,191.2c-9.2,13.4-12.2,24.3-9.2,32.8
			c3.1,8.5,14.2,19.3,33.7,31.9c-2,3.1-4,6.3-6.1,9.4c-57-36.9-112.7-76.8-166.8-119.8c2.3-2.9,4.6-5.8,7-8.7
			c17.7,14.1,31.2,21,40.3,21.2s18.5-6.2,28.1-19c46.4-61.8,92.9-123.5,139.3-185.3c-19.8-14.2-36.6-23.2-50.8-26.7
			c-26-6.2-50.4,1.3-73.2,23.3c-3.9-3.2-7.7-6.5-11.6-9.8C282.8,1885,302.1,1862.7,321.4,1840.3z"/>
		<path class="st0" d="M442.2,2275.1c16.9,9,29.7,12.9,38.1,12s16.6-8.5,24.4-22.9c31.2-56.9,62.3-113.8,93.5-170.7
			c8.1-14.9,10.3-26.3,6.5-34.3c-2.5-5.3-10.8-12.6-24.6-22.1c1.9-3.2,3.7-6.4,5.6-9.7c45.2,26.2,91.2,50.2,138,72.2
			c29.1,13.6,51.7,26.7,67.7,40c30.8,26.2,41.4,53.9,29.9,84.2c-8.4,22.4-25,36.3-50.2,41.2c-19.1,3.5-38,2.9-56.3-1.9
			c17.4,52.9,37.4,105.8,59.9,158.4c1.7,4.3,4,7.5,6.8,9.7c2.9,2.2,6.6,4.2,11.3,6.2c-1.2,3.3-2.3,6.6-3.5,9.9
			c-36.5-12.8-72.8-26.7-108.8-41.7c-22.6-59-42.1-118.3-58.6-177.5c-0.1,0-0.1-0.1-0.2-0.1c-12.7,25.8-25.3,51.5-38,77.3
			c-6.8,13.9-8.5,24.7-5,32.4s14,16.1,31.6,24.9c-1.6,3.4-3.1,6.8-4.7,10.1c-57.4-26.6-113.9-55.9-169.2-88
			C438.5,2281.5,440.3,2278.3,442.2,2275.1z M699.3,2235.3c16.4-1.1,30.1-14.5,41.1-40.1c6.8-15.7,9.6-29.1,8.8-40.2
			c-1.7-19-13.2-33.2-34.8-43.4c-11.7-5.5-20-7.9-24.9-7.1c-4.9,0.9-8.9,4.3-11.9,10.3c-16.5,33.5-32.9,67-49.4,100.5
			C659,2230,682.9,2236.3,699.3,2235.3z"/>
		<path class="st0" d="M1182.1,2279.4c27.8,34.3,39.9,73.9,33.6,119.8c-6.3,45.8-29.1,81.1-70.8,104
			c-40.6,22.3-89.4,27.8-143.8,15.1c-57.8-13.6-100.6-42.3-126.4-83.1c-24-38.4-28.1-77.6-14.7-117.2c14.8-43.7,42.8-74.1,82.1-92.9
			c39.8-19.2,82.5-22.6,130.6-11.3C1119.2,2224.6,1155,2245.9,1182.1,2279.4z M1098.8,2464c11.9-19.3,20.8-45.8,27-79.3
			c8.5-46.1,7.1-82.2-3.3-108.5c-10.5-26.3-28-42.1-53.2-48c-35-8.2-63.8,4.4-87.8,38.9c-12.6,18.3-23.7,43.6-33,76
			c-9.4,32.9-13.3,60.6-11.2,83c3.7,41.6,26.4,68.2,67.1,77.8C1044.7,2513.3,1076.7,2499.5,1098.8,2464z"/>
		<path class="st0" d="M1555.4,2302.3c34.2,27.9,54.1,64.3,57.3,110.5c3.2,46.1-11.9,85.3-47.9,116.2c-35,30.1-81.5,45.4-137.2,44
			c-59-1.5-106.4-20.8-139.7-55.4c-31.1-32.6-43-70.2-38-111.6c5.5-45.8,26.5-81.3,60.8-107.8c34.7-27,75.5-39.1,124.7-37.8
			C1482.8,2261.5,1522,2275,1555.4,2302.3z M1511.7,2500c7.7-21.3,10.9-49.1,10.2-83.1c-1-46.8-9.8-81.9-25.3-105.5
			c-15.6-23.6-35.8-35.5-61.6-36.2c-35.7-0.9-61.1,17.3-77.6,56c-8.6,20.5-14.2,47.5-16.7,81.1c-2.5,34.1-0.6,62,6,83.5
			c12.1,40,39.5,61.3,81.1,62.4C1469,2559.2,1497.4,2539.3,1511.7,2500z"/>
		<path class="st0" d="M1650.3,2546.8c17.9-2.5,29.6-6.7,35.2-12.4s7.5-16.3,5.9-31.8c-6.7-64.5-13.5-129.1-20.2-193.6
			c-1.7-16.4-5.5-26.5-11.4-30.3s-16.5-5.7-32.1-6c-0.3-3.7-0.6-7.4-0.9-11.1c50.5-4.1,100.8-10.4,150.8-18.9
			c39.8-6.7,70.9-7.1,94.4,0.2c23.4,7.3,38.8,25,45.8,53.8c3.4,14.1,2.4,28.3-3.3,42.6c-5.7,14.3-17.7,27.6-36.3,39.4
			c-14.1,8.5-28.8,14.8-44,18.7c-15.2,4-37.9,8.6-68.3,13.1c4,27.1,8,54.1,12,81.2c2.4,16,7.2,26,14.7,29.9
			c7.4,3.9,20.4,4.8,38.8,2.2c0.6,3.7,1.3,7.3,1.9,11c-60.4,10.4-121.1,18-182,23C1650.9,2554.2,1650.6,2550.5,1650.3,2546.8z
			 M1822.2,2376.7c14.3-11.6,18.5-31.9,12.9-60.8c-3.8-19.7-10.6-34.9-20.1-45.6c-9.5-10.8-24.4-14.3-44.7-10.9
			c-9.3,1.5-15.9,3.6-19.7,6.2c-3.8,2.7-5.2,7-4.3,12.9c5.8,39,11.5,77.9,17.3,116.9C1793.7,2390.5,1813.2,2384,1822.2,2376.7z"/>
		<path class="st0" d="M2114.3,2455.7c40.4-66.3,61.9-112.5,70.8-137.2c13.5-37.5,15-67,6.3-88.4c-5.2-12.7-14.5-22.8-27.7-30.4
			c-13.2-7.6-28.8-7.9-47.2-1.1c-16.2,6-28,15.8-35.7,29.9c-4.2,7.6-7.1,16.9-8.7,27.9c-4.3,1.4-8.6,2.9-13,4.3
			c1.1-32.4,8-58.5,20.9-78.6s29.9-34.2,51.6-42.7c20.5-8.1,41.7-9.2,64.1-3.6c22.4,5.7,39.4,20.7,50.7,45.6
			c5.9,13.1,7.9,28.3,5.6,45.7c-2.3,17.4-9.9,38.6-23.5,63.4c-16.5,29.9-34,59.7-52.4,89.2c0.4,1.1,0.8,2.3,1.3,3.4
			c24.1-8.8,48.1-18.1,71.9-27.9c24.9-10.2,40.3-19,46.4-25.6c6.1-6.6,9.7-18.8,10.7-36.4c3.9-1.8,7.8-3.6,11.7-5.4
			c5.7,31.4,11.1,62.9,16,94.5c-70.9,31.9-143.2,59.6-216.5,83.1C2116.3,2462.1,2115.3,2458.9,2114.3,2455.7z"/>
		<path class="st0" d="M2299.3,2101.6c8.2-29.9,23.4-50.8,46.5-63.7c26.7-14.9,55.9-15.9,89.1-3.1c33.8,13.2,63.1,37.5,86.8,74.5
			c27.9,43.5,38.4,84.8,29.6,124.1c-7.4,33-26.1,58.1-55,74.3c-20.4,11.4-40.4,16-59.8,14.1c-19.3-1.9-37.8-7.9-55.4-18
			c-15-8.4-28.1-20.1-39.5-35c-6.7-8.7-15-21.9-24.8-39.6C2294.1,2181.6,2288.9,2139.1,2299.3,2101.6z M2456.2,2294.1
			c11.6,8,23.1,8.9,34.5,2.5c14.3-8,18.1-23.6,11.4-46.6c-3.7-12.6-11.9-29.7-24.4-51.2c-16.9-29.1-33.8-58.2-50.7-87.3
			c-18-30.9-32.6-50.3-43.8-58.3s-21.4-9.4-30.9-4.2c-9.6,5.3-13.8,14.9-12.9,28.8c1,13.9,9.7,36.5,26.3,67.8
			c15.8,29.7,31.6,59.4,47.4,89.1C2430.3,2266.3,2444.6,2286.1,2456.2,2294.1z"/>
		<path class="st0" d="M2585.2,2102.6c4.7-12.1,13.9-26.1,27.2-42.4c-0.8-1.1-1.6-2.2-2.4-3.3c-3.9,1.7-13.3,2.8-28.2,3
			s-26.6-1.1-35.2-3.5c-10.4-2.8-18.4-6.6-24.1-11.1c-5.7-4.5-10.7-9.9-14.9-16.3c-11.8-17.8-13-38.7-4.4-62.7
			c8.6-24.1,26.1-45.5,52.6-65.7c24.6-18.7,47-28.8,67.8-30c20.8-1.1,36.8,4.4,47.8,17.3c11.2,13.2,13.8,30,7.3,50.5
			c-3.6,11.3-10.6,24.5-21.3,39.5c0.6,0.8,1.2,1.6,1.9,2.4c29.2-3.8,50.5-5.7,64-4.5c22.8,1.9,41.3,10.6,55.1,26.8
			c18.3,21.4,23.1,46.4,13.4,74.9c-9.8,28.4-30.7,55.3-62.6,79.1c-23.7,17.7-49.8,28.6-77.4,32.3c-27.6,3.8-48.1-5.1-61.5-25.5
			C2577.7,2144.7,2576.3,2124.5,2585.2,2102.6z M2669.8,2147.8c18.1,9.8,36.7,7.8,55.5-6.3c10.6-8,17.6-18.1,20.7-30.1
			c3.1-12-1-25.1-12.1-39.1c-10.7-13.6-25.6-20.8-44.5-22c-11.7-0.8-31.9,1.4-60.4,5.6c-0.7,16.3-0.5,28.2,0.8,35.5
			c1.9,11.2,6.7,22.4,14.7,33.6C2651.6,2135,2660,2142.6,2669.8,2147.8z M2639.5,1957.5c-1.7-8.7-6-17.5-13.1-26.4
			c-9.9-12.5-20.7-20.6-32.3-24.5s-23.8-0.9-36.9,9c-9.5,7.1-15.2,15.6-17.2,25.5c-2,10-0.1,19.1,5.9,27.5
			c9.5,13.3,26.3,20.4,50.6,20.5c14.2,0.1,28.7-1.9,43.4-6.2C2640.9,1971.3,2640.7,1962.8,2639.5,1957.5z"/>
	</g>
</g>
</svg>
