<?xml version="1.0" encoding="utf-8"?>
<!-- Generator: Adobe Illustrator 25.4.1, SVG Export Plug-In . SVG Version: 6.00 Build 0)  -->
<svg version="1.1" id="Layer_1" xmlns="http://www.w3.org/2000/svg" xmlns:xlink="http://www.w3.org/1999/xlink" x="0px" y="0px"
	 viewBox="0 0 5323.5 2082.3" style="enable-background:new 0 0 5323.5 2082.3;" xml:space="preserve">
<style type="text/css">
	.st0{fill:#FFFFFF;}
	.st1{font-family:'TimesNewRomanPS-BoldMT';}
	.st2{font-size:640px;}
	.st3{font-size:500px;}
	.st4{fill-rule:evenodd;clip-rule:evenodd;fill:#ED1C24;}
	.st5{fill-rule:evenodd;clip-rule:evenodd;fill:#2E3192;}
</style>
<text transform="matrix(1 0 0 1 1919.8875 1020.2355)" class="st0 st1 st2">TROOP 208</text>
<text transform="matrix(1 0 0 1 2199.7188 1634.3922)" class="st0 st1 st3">EXPORT, PA</text>
<path class="st0" d="M1708.2,812.8c5.9-7.3,10.7-16.6,13.8-28.3l6.8-25.3c0,0-52.5-4.8-59.7-4.8c2,1.7,0.4,1.6-2,0c0.7,0,1.3,0,2,0
	c-140.8-119.8-309.2-133.6-474.9-66.7c-56.6-229.6-191.7-420.8-300.6-628.6c-24.5,43.8-46.8,83.6-69,123.5
	c-90.3,162.2-188.4,320.7-232.4,507c-79.1-37.3-160.8-50.8-245.9-42.8c-86,8.1-198.3,61.5-222.5,106.2c6,0-61.5,9.5-61.5,9.5l9,24.7
	c3.6,9.8,8,18.1,13.3,25.1l-14,11c-43.8,102.4-39.6,203.3,3.8,303.4c47.1,108.8,133.7,177.8,241.1,229.1
	c-6.5-50.2-14-96.3,8.7-140.5c22.7-44.3,61.8-67.5,107.2-83.7c11.1,4.2,162.5,91.8,171.7,96.6c19.2,10,39,20.2,58.7,30.3
	c-23.5,24-47.2,48.4-70.3,72.1c-10.2,10.5-44.5,45.7-44.5,45.7l11.9,15.8c18.8,24.9,41.3,48,67.2,69c5.1-5.3,4.9,3.9,0,0
	c-7.1,7.4-13.6,14-16.2,15.7c-22.2,14.7-45.2,26.9-72.9,26.5c-55.6-0.8-97.5-30.9-116.9-86.4c-7.9-22.6-12.4-46.5-18.5-69.9
	c-1.3,0.7-2.7,1-3.2,1.8c-1.6,2.6-3,5.3-4.3,8.1c-27.4,54.6-35.6,112.9-31.2,173c9.7,131.3,112.8,241.7,237.8,255.7
	c41.7,4.7,81.3-3.7,121-21.9c38.7,95.4,95.5,176.6,171.7,244.5c76.6-68.4,133.1-149.9,171.6-243.7c104.5,43.5,194.7,21.5,272.3-52.9
	c87.4-83.8,103.5-187.6,75.4-301c-5.5-22.3-16-43.3-24.1-64.9c-1.7,0.4-3.5,0.9-5.2,1.3c-8.7,54.6-19.1,109.2-71.7,139.7
	c-54.2,31.4-104.6,16.7-150-21c-0.5,0.4-1.1,0.6-1.8,0.7l87.3-82.1l-15.7-16.8c-10.7-11.5-21.2-22.8-31.5-33.8
	c-24.1-25.9-46.9-50.4-69.9-74.9c20.5-10.2,164.2-84.8,191.9-109.7l23.5-21c47.6,16.5,95.9,45.5,117.9,89.1
	c22.1,43.9,13.4,90,8.3,136.5C1686.1,1281.7,1821.3,972.1,1708.2,812.8z"/>
<g>
	<path class="st4" d="M592.4,689.5c44-186.3,142.1-344.9,232.4-507c22.2-39.9,44.5-79.7,69-123.5c108.9,207.8,243.9,399,300.6,628.6
		c168.1-67.9,326.4-62.4,468.4,62.2c-33.8,0.9-65.8,6.4-99.5-13.2c-121.2-70.5-297.1-52.5-404.9,36.9c-1.7,1.4-3.5,2.7-7.9,6
		c2.7-68.8-13-131.6-40-190.5c-39.5-85.9-82.7-170.2-125.7-254.5c-25.5-50.1-53.5-98.8-80.3-148.2c-3.1-5.8-6.3-11.5-11.2-20.3
		c-16.3,30.1-31.6,57.5-46.1,85.3c-54,104.1-109.6,207.4-160.8,312.8c-32.1,66.1-53.1,136.6-50.2,215c-8.8-6.9-15.5-12.5-22.6-17.7
		c-58.4-43.4-125.4-62.1-196.8-66.6c-77.1-4.8-149.4,10.7-214.8,53.6c-3.9,2.5-9,4.2-13.6,4.3c-21.3,0.4-42.6,0.2-64.5,0.2
		c24.2-44.7,136.5-98.2,222.5-106.2C431.6,638.7,513.3,652.3,592.4,689.5z"/>
	<path class="st4" d="M1376.9,1499.6c-21.3,13.2-40.8,28.3-62.6,38.2c-59.6,27-115.6,15.9-167.4-21.7c-21-15.2-21-22.9-1.3-38.1
		c4.8-3.7,9.7-7.4,16.1-12.3c45.3,37.7,95.8,52.4,150,21c52.6-30.5,63.1-85.2,71.7-139.7c1.7-0.4,3.5-0.9,5.2-1.3
		c8.2,21.6,18.6,42.7,24.1,64.9c28.1,113.4,12,217.2-75.4,301c-77.6,74.4-167.8,96.4-272.3,52.9c-38.4,93.8-94.9,175.3-171.6,243.7
		c-76.2-67.9-133-149.1-171.7-244.5c-39.6,18.2-79.3,26.5-121,21.9c-124.9-14-228.1-124.4-237.8-255.7c-4.4-60.1,3.8-118.4,31.2-173
		c1.4-2.7,2.7-5.5,4.3-8.1c0.5-0.8,1.9-1.1,3.2-1.8c6.1,23.4,10.6,47.2,18.5,69.9c19.4,55.5,61.3,85.6,116.9,86.4
		c27.7,0.4,50.8-11.8,72.9-26.5c6-4,11.7-8.6,18.1-13.4c5.5,4.2,10.9,8.2,16.2,12.2c23.8,18.2,23.8,19.3,0.3,37
		c-72.9,54.8-149.1,53.3-220-4.3c-4.2-3.4-8.3-6.7-13-10.4c-4.9,74.2,31.4,159.4,103.6,203.5c60.1,36.8,140,61.1,229.5-13.1
		c35.1,91.9,75.6,180.2,148.5,252.3c72.5-70.8,113.2-159.4,148-250.9c18.1,11.1,34.3,23.3,52.3,31.8c45.7,21.5,92.2,19.5,138.6,0.6
		C1321.9,1685.6,1380,1596.7,1376.9,1499.6z"/>
	<path class="st4" d="M928.5,723.6c-24.5,0-45.8,0-70.2,0c11-156.4,21.9-312.1,32.8-467.8c1.5,0,3-0.1,4.5-0.1
		C906.5,411,917.4,566.4,928.5,723.6z"/>
	<path class="st4" d="M308.7,1047.9c-13.7,10-27.1,20.5-41.2,30c-7.8,5.3-10.2,10.3-6.6,19.6c6.2,16.4,10.9,33.3,17.5,54.2
		c-20.9-14.9-38.1-27.2-56.3-40.2c-17.4,12.3-34.7,24.6-56.1,39.8c6.3-20,10.7-36,16.4-51.5c3.8-10.1,2.8-16.7-6.9-22.9
		c-13.8-8.8-26.6-19-39.2-32.9c15.9,0,31.9-1.1,47.8,0.3c13.2,1.2,18.4-4.4,21.6-16.1c4.1-15.1,9.5-29.9,16.1-50.1
		c7,20.8,13.2,36.2,17.3,52.1c2.9,11.2,8.5,14.4,19.4,13.9c16.3-0.8,32.7-0.2,49-0.2C308,1045.3,308.4,1046.6,308.7,1047.9z"/>
	<path class="st4" d="M1564.4,978.4c7.2,21.1,12.1,37.9,18.9,53.9c2.2,5,9.4,10.7,14.7,11.1c16.9,1.4,34.1,0.5,53.2,3.9
		c-10.7,7.9-20.7,17-32.2,23.5c-15.9,9.1-20.6,19.7-12.5,37c5.8,12.4,8.8,26.2,14.5,43.9c-18.3-13.2-32.1-24.2-47.1-33.4
		c-4.6-2.8-13.7-2.7-18.4,0.1c-15,9.1-29,20.1-47.2,33.2c6.5-20.5,11-37.2,17.2-53.3c3.9-10,1.4-15.4-7.1-21.1
		c-14-9.3-27.2-19.8-39.6-33.3c17.4,0,34.9,0.9,52.2-0.5c5.4-0.4,13-5.9,15.1-10.9C1552.8,1016.6,1557.4,999.7,1564.4,978.4z"/>
	<path class="st4" d="M881.9,1184.5c10.5,0,18.8,0,28.8,0c0.5,5.6,1.3,10.8,1.3,16c0.1,79.5-0.2,159.1,0.3,238.6
		c0.1,12.8-2.7,23.2-16.6,22.9c-13.1-0.2-15-11-15-22.6c0.3-79.5,0.2-159.1,0.2-238.6C881,1196,881.5,1191.2,881.9,1184.5z"/>
	<path class="st4" d="M855.6,1435c-22.9-11.7-31.6-27.9-30.7-53.3c2-58.6,0.6-117.3,0.6-176c0-6.6,0-13.1,0-20.8
		c11.1,0,19.9,0,30.1,0C855.6,1268,855.6,1350.8,855.6,1435z"/>
	<path class="st4" d="M937.4,1435c0-83.8,0-166.4,0-250.2c9.9,0,18.7,0,29.9,0c0,7.2,0,13.7,0,20.2c0,58-1.3,116,0.6,173.9
		C968.8,1404.5,962.2,1422.7,937.4,1435z"/>
	<path class="st4" d="M800.3,1380.3c-20.6-22-33.4-43.9-31-74.4c2.7-33.9,0.6-68.2,0.7-102.4c0-5.9,0.6-11.9,0.9-18.7
		c10.3,0,19.2,0,29.4,0C800.3,1249.3,800.3,1313.5,800.3,1380.3z"/>
	<path class="st4" d="M993.1,1184.6c10.1,0,18.5,0,29.5,0c0,23.2,0,45.5,0,67.9c0,19.6-1.8,39.4,0.4,58.7
		c3.2,28.2-11.4,47.1-30,68.8C993.1,1313.3,993.1,1249.8,993.1,1184.6z"/>
	<path class="st4" d="M740.6,1281c-6-31.5-12-63-18.4-96.2c10,0,15.8,0,22.9,0c0,31.9,0,63.7,0,95.4
		C743.7,1280.4,742.2,1280.7,740.6,1281z"/>
	<path class="st4" d="M1048.6,1184.5c6.2,0,10.9,0,21.2,0c-5.5,32.1-10.7,62.6-15.9,93.1c-1.8-0.2-3.5-0.4-5.3-0.6
		C1048.6,1246.8,1048.6,1216.5,1048.6,1184.5z"/>
	<path class="st4" d="M1707.8,811.9c114.3,159.1-21,469.7-236.2,541.8c5.1-46.5,13.8-92.6-8.3-136.5
		c-21.9-43.6-59.2-68.3-106.8-84.7c17.5-12.1,31.8-23.5,47.5-32.2c4.5-2.5,14.1,1,19.8,4.4c58,35,89.2,88.2,103.8,154.3
		c3.3-1.4,7.2-2.4,10.5-4.5c122.7-76.1,185-227.9,147.1-367.1c-7.4-27.1-5.7-46,13.4-64.5C1701.7,819.9,1704.1,816.4,1707.8,811.9z"
		/>
	<path class="st4" d="M79.6,803.9c11.2,14.9,21.4,26.4,29,39.4c2.8,4.9,1.4,13.7-0.8,19.8C59,999.8,111.2,1168.9,252,1256.7
		c1.9,1.2,4.3,1.7,7.8,3c7.5-49.6,31-90,64.3-125.3c41.4-43.9,58.7-44.6,109-3.4c-46.1,16.3-85.8,39.5-108.7,84.3
		c-22.7,44.2-15.1,90.3-8.7,140.5c-107.5-51.4-194-120.4-241.1-229.2C28.5,1020.2,26.6,912.9,79.6,803.9z"/>
</g>
<g>
	<path class="st5" d="M396.2,1072c33.7-1.6,64.5-3.1,95.2-4.5c0.2-0.7,0.4-1.5,0.6-2.2c-14-2.3-28-4.8-42-6.9
		c-24.7-3.7-49.9-5.2-73.9-11.3c-19-4.8-36.7-15.2-55-23.1c0.7-2.1,1.4-4.3,2.1-6.4c34.5-1.7,69-3.4,103.5-5
		c0.2-0.9,0.3-1.8,0.5-2.6c-24.8-3.5-49.7-7-74.5-10.5c-16.8-2.4-34.5-2.4-50.3-7.8c-18.2-6.2-34.7-17.2-52-26.1
		c0.8-2,1.6-3.9,2.4-5.9c36.3-1.7,72.5-3.4,108.8-5.1c0.1-0.8,0.1-1.5,0.2-2.3c-34.7-4.8-69.2-11.6-104-13.9
		c-30.7-2.1-53.1-15.3-73.2-42c41,0,80,0,119,0c0.1-1.8,0.2-3.5,0.2-5.3c-30.1-4.3-60.3-8.6-90.4-12.8c-11.5-1.6-23-2.8-34.4-4.5
		c-18.8-2.8-32.4-12.6-41.3-31.7c53.5,0,106.2,0,159,0c0.2-1.3,0.4-2.7,0.5-4c-6.2-1.3-12.3-2.9-18.6-3.7
		c-47.1-6.1-94.1-12.6-141.3-17.7c-23.1-2.5-36-15.2-44-37.3c3.1-0.7,5.7-1.8,8.3-1.8c137.1,0.2,274.2-0.9,411.2,1.4
		c54,0.9,101.9,22.2,140.6,61.6c30.4,31,61.3,61.6,92.1,92.2c5.6,5.6,11.6,11,18.2,15.1c18.3,11.4,32.8,8.2,42.5-11.1
		c10.6-21.1,18.8-43.3,28-65c-14.6-9.6-28.2-18.7-41.9-27.7c0.8-2,1.6-3.9,2.4-5.9c17.6,1.8,35.7,1.5,52.6,5.9
		c19.9,5.2,23.4,15,17.5,34.4c-7.6,25.6-15.1,51.2-23.2,78.5c40.8,0,80,0,120.8,0c-5.4-36-10.7-71.4-16-106.7
		c-1.4-9-2.6-18.1-4.3-27c-5-25.7-10.5-32.5-36.1-34.4c-17.4-1.3-35.1,2.5-52.7,4.1c-0.3,2.1-0.5,4.2-0.8,6.3
		c7.2,3.7,14.3,7.3,26.3,13.4c-12.4,4.4-21.3,9.1-30.6,10.4c-15.6,2.1-31.6,1.8-47.4,3c-15.5,1.1-26.9,5.9-16,27.4
		c-17.8-6.2-20.7-17.7-20.5-30.9c0.1-12.9,2.6-25.8,16.9-28.9c12.8-2.8,26.4-1.7,39.6-2.7c4.8-0.4,12.3-0.4,13.8-3.2
		c22.4-41.6,60.6-37.4,98.1-34.4c16.3,1.3,32.3,5,49.7,7.7c-26.7,47.5,3,93.5,4.9,140.6c0.4,10.8,3,21.8,6.5,32
		c6.8,19.8,21.4,24.2,38.5,12.1c6.5-4.5,12.4-9.9,18-15.5c30.4-30.2,60.8-60.3,90.8-90.9c38.2-39,85.6-59.7,138.9-60.6
		c137-2.2,274.1-1.2,411.2-1.5c2.8,0,5.7,0.7,8.9,1.1c-8.9,33.2-34.8,37.9-62.4,40.9c-43.6,4.7-87.2,10.1-130.7,15.4
		c-3.8,0.5-7.4,2.7-10.6,6.7c52.9,0,105.8,0,159.5,0c-15.5,34.4-47,32.2-75.1,36.5c-30.3,4.7-60.7,8.5-90.8,17c38,0,76,0,118.1,0
		c-18.2,23.9-35.3,39.5-62.7,42.2c-38,3.8-75.7,9.7-113.4,17.4c35.9,1.6,71.9,3.3,109.1,4.9c-17.9,23.6-41.8,33.3-69.9,36.2
		c-31.5,3.2-62.9,7.6-94.3,11.8c-3.4,0.4-6.7,2.4-13.2,4.8c37,1.8,70.5,3.5,107,5.3c-19.1,22-42.2,29.4-67,32.9
		c-30.8,4.4-61.6,8-92.4,12.1c-3.4,0.5-6.7,2.3-13.1,4.7c34.2,1.7,65.2,3.1,98.8,4.8c-49.3,49.3-114,38.6-174.6,54.7
		c30.4,1.9,56.7,3.5,84.3,5.2c-45.3,40.5-101.8,41.7-155.6,53.3c18.7,1,37.3,2,56,3c0.4,1.5,0.9,3,1.3,4.5
		c-31.8,16.4-63.4,33.1-95.5,48.9c-17.5,8.7-18.5,12.8-4.7,27.5c34.7,36.9,69.1,74,106.5,114.1c-27.5,25.8-59.2,55.7-93.8,88.2
		c-14.9-34.8-25.7-65.8-41.1-94.2c-17.9-33.2-19-63.1-4.3-98.8c11.6-28.4,14-61.6,15.4-92.9c2.4-49.9,0.6-100,0.6-150.6
		c-64.2-15.5-126.7-30.7-189.3-45.6c-3.5-0.8-7.4-0.9-10.9-0.1c-62.5,15-125,30.1-190,45.8c7.1,86.2-14.8,174.5,20.5,257.4
		c11.3,26.6,8.8,47.2-2.6,71.1c-16,33.4-29.8,67.8-45.5,103.9c-37.6-25-70.1-54.4-96.3-89.2c35.7-36.7,70.6-72.6,105.6-108.4
		c17-17.3,16.9-17.8-4.5-28.7c-30.8-15.7-61.5-31.8-92.3-47.7c0.1-1.6,0.1-3.3,0.2-4.9c18.6-1.1,37.2-2.2,55.7-3.3
		c0.2-0.8,0.3-1.6,0.5-2.4c-17.7-2.5-35.6-4.2-53.1-7.7c-17.8-3.6-35.9-7.5-52.8-14c-17.3-6.7-33.3-16.7-48.8-29.1
		c26.4-1.7,52.8-3.3,83-5.2C510.6,1110.6,446,1121.4,396.2,1072z"/>
	<path class="st5" d="M1044.8,1355.8c21.5,49.9,43.3,100.6,65.3,151.7c-7.9,4.6-15.2,8.8-22.3,12.9c5.8,25.1,27.4,43.2,56.5,47.1
		c13.3,1.8,26.6,3,40,3.8c23.4,1.3,30.8,12.3,21.8,34.5c-2.6,6.3-7.4,11.6-13.6,18c3.4-26.7-12-27-30.1-26.6
		c-36.7,0.9-73.3,0.2-110,0.3c-23.7,0-23.7,0.1-20.3,23.5c-13.4-7-20.9-22.5-16.9-36.3c4.2-14.7,15.7-16.9,28.9-16.5
		c9.6,0.3,19.2,0.1,34.8,0.1c-9.1-13.4-15.2-22.4-21.6-31.9c-14,4.8-27,9.3-41,14.2c-15.2-35.2-30.4-69.6-44.6-104.4
		c-1.4-3.5,1.4-10.4,4.4-13.9C997.9,1407.1,1020.6,1382.5,1044.8,1355.8z"/>
	<path class="st5" d="M777.3,1548.7c-15.2-3.5-29.1-9.7-42.4-8.4c-6.7,0.6-12.1,14.8-20.7,26.5c13.9,0.6,23.6-0.4,32.6,1.8
		c10.2,2.6,25.3,5.7,28.3,12.8c6,14.3,3.8,30.9-12.8,41.4c-1.6-25.2-1.6-25.2-26.7-25.2c-34.8,0-69.6,0-104.5,0
		c-26.6,0-26.6,0-29.4,26.4c-15.5-10.2-20.4-24.5-16.2-40.4c1.4-5.1,10.8-10.2,17.3-11.5c20.2-4,41.2-4.2,61-9.5
		c19.7-5.3,36.3-17,42.3-39.9c-7.4-5.1-14.8-10.1-23.1-15.8c21.9-50.7,43.7-101.2,65.1-150.8c24.5,26.6,47.9,51.8,70.9,77.4
		c2.6,2.9,4.6,9.3,3.2,12.6C807.6,1480.7,792.2,1514.9,777.3,1548.7z"/>
	<path class="st5" d="M844.2,1456.2c14.3,9.6,27.3,17.4,39.2,26.6c9.2,7.2,16.7,6.9,25.7,0.2c12.1-9,24.9-17.1,39.3-26.8
		c10.8,25.1,21.1,48.9,32.1,74.4c-56.8,12.9-111.5,12.2-168.1,0.3C823.1,1506.1,833.2,1482.2,844.2,1456.2z"/>
	<path class="st5" d="M1066.9,1065.8c0.2-10.3-4.6-13.8-13.6-15.6c-14.3-2.9-28.4-6.8-42.6-9.9c-59.2-12.9-117.5-38.4-179.3-11.9
		c-4.4,1.9-9.4,2.5-14.1,3.6c-31,7.6-61.9,15.1-92.8,22.6c0,30.8,0.9,58.9-0.3,87c-0.7,15.6,4.7,19.4,19.7,19.3
		c101.6-0.6,203.1-0.3,304.7-0.3c5.4,0,10.7,0,18.2,0C1066.7,1127,1066.3,1096.4,1066.9,1065.8z M750.9,1075.4l5.8-11.8l5.8,11.8
		l13,1.9l-9.4,9.2l2.2,13l-11.6-6.1l-11.6,6.1l2.2-13l-9.4-9.2L750.9,1075.4z M769.8,1149.2l-11.6-6.1l-11.6,6.1l2.2-13l-9.4-9.2
		l13-1.9l5.8-11.8l5.8,11.8l13,1.9l-9.4,9.2L769.8,1149.2z M783.1,1065.8l13-1.9l5.8-11.8l5.8,11.8l13,1.9l-9.4,9.2l2.2,13
		l-11.6-6.1l-11.6,6.1l2.2-13L783.1,1065.8z M825.1,1149.2l-11.6-6.1l-11.6,6.1l2.2-13l-9.4-9.2l13-1.9l5.8-11.8l5.8,11.8l13,1.9
		l-9.4,9.2L825.1,1149.2z M837.2,1077.5l2.2-13l-9.4-9.2l13-1.9l5.8-11.8l5.8,11.8l13,1.9l-9.4,9.2l2.2,13l-11.6-6.1L837.2,1077.5z
		 M880.4,1149.2l-11.6-6.1l-11.6,6.1l2.2-13l-9.4-9.2l13-1.9l5.8-11.8l5.8,11.8l13,1.9l-9.4,9.2L880.4,1149.2z M884.8,1065.9l2.2-13
		l-9.4-9.2l13-1.9l5.8-11.8l5.8,11.8l13,1.9l-9.4,9.2l2.2,13l-11.6-6.1L884.8,1065.9z M936.5,1149.2l-11.6-6.1l-11.6,6.1l2.2-13
		l-9.4-9.2l13-1.9l5.8-11.8l5.8,11.8l13,1.9l-9.4,9.2L936.5,1149.2z M942.5,1071.3l-11.6,6.1l2.2-13l-9.4-9.2l13-1.9l5.8-11.8
		l5.8,11.8l13,1.9l-9.4,9.2l2.2,13L942.5,1071.3z M991,1149.2l-11.6-6.1l-11.6,6.1l2.2-13l-9.4-9.2l13-1.9l5.8-11.8l5.8,11.8l13,1.9
		l-9.4,9.2L991,1149.2z M1003.3,1088l-11.6-6.1l-11.6,6.1l2.2-13l-9.4-9.2l13-1.9l5.8-11.8l5.8,11.8l13,1.9l-9.4,9.2L1003.3,1088z
		 M1044,1136.2l2.2,13l-11.6-6.1l-11.6,6.1l2.2-13l-9.4-9.2l13-1.9l5.8-11.8l5.8,11.8l13,1.9L1044,1136.2z M1048.6,1086.5l2.2,13
		l-11.6-6.1l-11.6,6.1l2.2-13l-9.4-9.2l13-1.9l5.8-11.8l5.8,11.8l13,1.9L1048.6,1086.5z"/>
</g>
</svg>
